<svg width="60" height="20" viewBox="0 0 60 20" fill="none" xmlns="http://www.w3.org/2000/svg">
<path d="M8.64844 19C8.49219 18.6953 8.37891 18.3164 8.30859 17.8633C7.48828 18.7773 6.42188 19.2344 5.10938 19.2344C3.86719 19.2344 2.83594 18.875 2.01562 18.1562C1.20312 17.4375 0.796875 16.5312 0.796875 15.4375C0.796875 14.0938 1.29297 13.0625 2.28516 12.3438C3.28516 11.625 4.72656 11.2617 6.60938 11.2539H8.16797V10.5273C8.16797 9.94141 8.01562 9.47266 7.71094 9.12109C7.41406 8.76953 6.94141 8.59375 6.29297 8.59375C5.72266 8.59375 5.27344 8.73047 4.94531 9.00391C4.625 9.27734 4.46484 9.65234 4.46484 10.1289H1.07812C1.07812 9.39453 1.30469 8.71484 1.75781 8.08984C2.21094 7.46484 2.85156 6.97656 3.67969 6.625C4.50781 6.26562 5.4375 6.08594 6.46875 6.08594C8.03125 6.08594 9.26953 6.48047 10.1836 7.26953C11.1055 8.05078 11.5664 9.15234 11.5664 10.5742V16.0703C11.5742 17.2734 11.7422 18.1836 12.0703 18.8008V19H8.64844ZM5.84766 16.6445C6.34766 16.6445 6.80859 16.5352 7.23047 16.3164C7.65234 16.0898 7.96484 15.7891 8.16797 15.4141V13.2344H6.90234C5.20703 13.2344 4.30469 13.8203 4.19531 14.9922L4.18359 15.1914C4.18359 15.6133 4.33203 15.9609 4.62891 16.2344C4.92578 16.5078 5.33203 16.6445 5.84766 16.6445ZM8.14453 4.63281H5.36719L2.13281 1H5.82422L8.14453 4.63281ZM14.3438 17.3359C14.3438 16.7969 14.5234 16.3594 14.8828 16.0234C15.25 15.6875 15.707 15.5195 16.2539 15.5195C16.8086 15.5195 17.2656 15.6875 17.625 16.0234C17.9922 16.3594 18.1758 16.7969 18.1758 17.3359C18.1758 17.8672 17.9961 18.3008 17.6367 18.6367C17.2773 18.9648 16.8164 19.1289 16.2539 19.1289C15.6992 19.1289 15.2422 18.9648 14.8828 18.6367C14.5234 18.3008 14.3438 17.8672 14.3438 17.3359ZM30.7031 19H27.3047V1H30.7031V19ZM37.0781 19H33.6797V6.32031H37.0781V19ZM33.4805 3.03906C33.4805 2.53125 33.6484 2.11328 33.9844 1.78516C34.3281 1.45703 34.793 1.29297 35.3789 1.29297C35.957 1.29297 36.418 1.45703 36.7617 1.78516C37.1055 2.11328 37.2773 2.53125 37.2773 3.03906C37.2773 3.55469 37.1016 3.97656 36.75 4.30469C36.4062 4.63281 35.9492 4.79688 35.3789 4.79688C34.8086 4.79688 34.3477 4.63281 33.9961 4.30469C33.6523 3.97656 33.4805 3.55469 33.4805 3.03906ZM40.8047 19V8.80469H38.918V6.32031H40.8047V5.24219C40.8047 3.82031 41.2109 2.71875 42.0234 1.9375C42.8438 1.14844 43.9883 0.753906 45.457 0.753906C45.9258 0.753906 46.5 0.832031 47.1797 0.988281L47.1445 3.61328C46.8633 3.54297 46.5195 3.50781 46.1133 3.50781C44.8398 3.50781 44.2031 4.10547 44.2031 5.30078V6.32031H46.7227V8.80469H44.2031V19H40.8047ZM54.0352 19.2344C52.1758 19.2344 50.6602 18.6641 49.4883 17.5234C48.3242 16.3828 47.7422 14.8633 47.7422 12.9648V12.6367C47.7422 11.3633 47.9883 10.2266 48.4805 9.22656C48.9727 8.21875 49.668 7.44531 50.5664 6.90625C51.4727 6.35937 52.5039 6.08594 53.6602 6.08594C55.3945 6.08594 56.7578 6.63281 57.75 7.72656C58.75 8.82031 59.25 10.3711 59.25 12.3789V13.7617H51.1758C51.2852 14.5898 51.6133 15.2539 52.1602 15.7539C52.7148 16.2539 53.4141 16.5039 54.2578 16.5039C55.5625 16.5039 56.582 16.0312 57.3164 15.0859L58.9805 16.9492C58.4727 17.668 57.7852 18.2305 56.918 18.6367C56.0508 19.0352 55.0898 19.2344 54.0352 19.2344ZM53.6484 8.82812C52.9766 8.82812 52.4297 9.05469 52.0078 9.50781C51.5938 9.96094 51.3281 10.6094 51.2109 11.4531H55.9219V11.1836C55.9062 10.4336 55.7031 9.85547 55.3125 9.44922C54.9219 9.03516 54.3672 8.82812 53.6484 8.82812Z" fill="#EBEBEB"/>
<path d="M8.64844 19C8.49219 18.6953 8.37891 18.3164 8.30859 17.8633C7.48828 18.7773 6.42188 19.2344 5.10938 19.2344C3.86719 19.2344 2.83594 18.875 2.01562 18.1562C1.20312 17.4375 0.796875 16.5312 0.796875 15.4375C0.796875 14.0938 1.29297 13.0625 2.28516 12.3438C3.28516 11.625 4.72656 11.2617 6.60938 11.2539H8.16797V10.5273C8.16797 9.94141 8.01562 9.47266 7.71094 9.12109C7.41406 8.76953 6.94141 8.59375 6.29297 8.59375C5.72266 8.59375 5.27344 8.73047 4.94531 9.00391C4.625 9.27734 4.46484 9.65234 4.46484 10.1289H1.07812C1.07812 9.39453 1.30469 8.71484 1.75781 8.08984C2.21094 7.46484 2.85156 6.97656 3.67969 6.625C4.50781 6.26562 5.4375 6.08594 6.46875 6.08594C8.03125 6.08594 9.26953 6.48047 10.1836 7.26953C11.1055 8.05078 11.5664 9.15234 11.5664 10.5742V16.0703C11.5742 17.2734 11.7422 18.1836 12.0703 18.8008V19H8.64844ZM5.84766 16.6445C6.34766 16.6445 6.80859 16.5352 7.23047 16.3164C7.65234 16.0898 7.96484 15.7891 8.16797 15.4141V13.2344H6.90234C5.20703 13.2344 4.30469 13.8203 4.19531 14.9922L4.18359 15.1914C4.18359 15.6133 4.33203 15.9609 4.62891 16.2344C4.92578 16.5078 5.33203 16.6445 5.84766 16.6445ZM8.14453 4.63281H5.36719L2.13281 1H5.82422L8.14453 4.63281ZM14.3438 17.3359C14.3438 16.7969 14.5234 16.3594 14.8828 16.0234C15.25 15.6875 15.707 15.5195 16.2539 15.5195C16.8086 15.5195 17.2656 15.6875 17.625 16.0234C17.9922 16.3594 18.1758 16.7969 18.1758 17.3359C18.1758 17.8672 17.9961 18.3008 17.6367 18.6367C17.2773 18.9648 16.8164 19.1289 16.2539 19.1289C15.6992 19.1289 15.2422 18.9648 14.8828 18.6367C14.5234 18.3008 14.3438 17.8672 14.3438 17.3359ZM30.7031 19H27.3047V1H30.7031V19ZM37.0781 19H33.6797V6.32031H37.0781V19ZM33.4805 3.03906C33.4805 2.53125 33.6484 2.11328 33.9844 1.78516C34.3281 1.45703 34.793 1.29297 35.3789 1.29297C35.957 1.29297 36.418 1.45703 36.7617 1.78516C37.1055 2.11328 37.2773 2.53125 37.2773 3.03906C37.2773 3.55469 37.1016 3.97656 36.75 4.30469C36.4062 4.63281 35.9492 4.79688 35.3789 4.79688C34.8086 4.79688 34.3477 4.63281 33.9961 4.30469C33.6523 3.97656 33.4805 3.55469 33.4805 3.03906ZM40.8047 19V8.80469H38.918V6.32031H40.8047V5.24219C40.8047 3.82031 41.2109 2.71875 42.0234 1.9375C42.8438 1.14844 43.9883 0.753906 45.457 0.753906C45.9258 0.753906 46.5 0.832031 47.1797 0.988281L47.1445 3.61328C46.8633 3.54297 46.5195 3.50781 46.1133 3.50781C44.8398 3.50781 44.2031 4.10547 44.2031 5.30078V6.32031H46.7227V8.80469H44.2031V19H40.8047ZM54.0352 19.2344C52.1758 19.2344 50.6602 18.6641 49.4883 17.5234C48.3242 16.3828 47.7422 14.8633 47.7422 12.9648V12.6367C47.7422 11.3633 47.9883 10.2266 48.4805 9.22656C48.9727 8.21875 49.668 7.44531 50.5664 6.90625C51.4727 6.35937 52.5039 6.08594 53.6602 6.08594C55.3945 6.08594 56.7578 6.63281 57.75 7.72656C58.75 8.82031 59.25 10.3711 59.25 12.3789V13.7617H51.1758C51.2852 14.5898 51.6133 15.2539 52.1602 15.7539C52.7148 16.2539 53.4141 16.5039 54.2578 16.5039C55.5625 16.5039 56.582 16.0312 57.3164 15.0859L58.9805 16.9492C58.4727 17.668 57.7852 18.2305 56.918 18.6367C56.0508 19.0352 55.0898 19.2344 54.0352 19.2344ZM53.6484 8.82812C52.9766 8.82812 52.4297 9.05469 52.0078 9.50781C51.5938 9.96094 51.3281 10.6094 51.2109 11.4531H55.9219V11.1836C55.9062 10.4336 55.7031 9.85547 55.3125 9.44922C54.9219 9.03516 54.3672 8.82812 53.6484 8.82812Z" fill="url(#paint0_linear)"/>
<defs>
<linearGradient id="paint0_linear" x1="68" y1="11" x2="68" y2="12" gradientUnits="userSpaceOnUse">
<stop stop-color="white"/>
<stop offset="1" stop-color="white" stop-opacity="0"/>
</linearGradient>
</defs>
</svg>
