<svg width="52" height="19" viewBox="0 0 52 19" fill="none" xmlns="http://www.w3.org/2000/svg">
<path d="M4.05754 18H0.547539L5.31754 5.4H8.91754L13.6875 18H10.1775L9.36754 15.75H4.86754L4.05754 18ZM5.67754 13.41H8.55754L7.11754 9.18L5.67754 13.41ZM17.4668 18V4.92L14.7068 5.88L13.5068 3.12L17.9468 1.2H21.7868V18H17.4668ZM29.7134 11.28C28.7534 11.28 28.2734 11.76 28.2734 12.72V13.68C28.2734 14.048 28.3774 14.344 28.5854 14.568C28.8094 14.776 29.1054 14.88 29.4734 14.88H33.0734C33.4414 14.88 33.7294 14.776 33.9374 14.568C34.1614 14.344 34.2734 14.048 34.2734 13.68V12.72C34.2734 11.76 33.7934 11.28 32.8334 11.28H29.7134ZM30.1934 4.32C29.2334 4.32 28.7534 4.8 28.7534 5.76V6.48C28.7534 7.44 29.2334 7.92 30.1934 7.92H32.3534C33.3134 7.92 33.7934 7.44 33.7934 6.48V5.76C33.7934 4.8 33.3134 4.32 32.3534 4.32H30.1934ZM38.5934 13.68C38.5934 15.248 38.2254 16.4 37.4894 17.136C36.7534 17.872 35.6014 18.24 34.0334 18.24H28.5134C26.9454 18.24 25.7934 17.872 25.0574 17.136C24.3214 16.4 23.9534 15.248 23.9534 13.68V13.44C23.9534 12.224 24.2574 11.216 24.8654 10.416C25.3454 9.776 26.0014 9.344 26.8334 9.12C26.1134 8.88 25.5294 8.464 25.0814 7.872C24.6494 7.264 24.4334 6.48 24.4334 5.52V5.28C24.4334 3.824 24.8014 2.744 25.5374 2.04C26.2734 1.32 27.4254 0.959999 28.9934 0.959999H33.5534C35.1214 0.959999 36.2734 1.32 37.0094 2.04C37.7454 2.744 38.1134 3.824 38.1134 5.28V5.52C38.1134 6.48 37.8894 7.264 37.4414 7.872C37.0094 8.464 36.4334 8.88 35.7134 9.12C37.0094 9.472 37.8894 10.336 38.3534 11.712C38.5134 12.208 38.5934 12.784 38.5934 13.44V13.68ZM47.4715 7.92H51.5515V11.28H47.4715V15.36H44.1115V11.28H40.0315V7.92H44.1115V3.84H47.4715V7.92Z" fill="white"/>
</svg>
